<?xml version="1.0" encoding="UTF-8" standalone="no"?>
<!DOCTYPE svg PUBLIC "-//W3C//DTD SVG 1.1//EN"
 "http://www.w3.org/Graphics/SVG/1.1/DTD/svg11.dtd">
<!-- Generated by graphviz version 2.38.0 (20140413.2041)
 -->
<!-- Title: dockerComposeGraph Pages: 1 -->
<svg width="804pt" height="563pt"
 viewBox="0.00 0.00 803.89 563.00" xmlns="http://www.w3.org/2000/svg" xmlns:xlink="http://www.w3.org/1999/xlink">
<g id="graph0" class="graph" transform="scale(1 1) rotate(0) translate(4 559)">
<title>dockerComposeGraph</title>
<polygon fill="white" stroke="none" points="-4,4 -4,-559 799.894,-559 799.894,4 -4,4"/>
<g id="clust1" class="cluster"><title>cluster_hostports</title>
<path fill="moccasin" stroke="black" d="M20,-8C20,-8 80.8939,-8 80.8939,-8 86.8939,-8 92.8939,-14 92.8939,-20 92.8939,-20 92.8939,-535 92.8939,-535 92.8939,-541 86.8939,-547 80.8939,-547 80.8939,-547 20,-547 20,-547 14,-547 8,-541 8,-535 8,-535 8,-20 8,-20 8,-14 14,-8 20,-8"/>
</g>
<g id="clust2" class="cluster"><title>cluster_hostvolumes</title>
<path fill="moccasin" stroke="black" d="M643.894,-100C643.894,-100 775.894,-100 775.894,-100 781.894,-100 787.894,-106 787.894,-112 787.894,-112 787.894,-198 787.894,-198 787.894,-204 781.894,-210 775.894,-210 775.894,-210 643.894,-210 643.894,-210 637.894,-210 631.894,-204 631.894,-198 631.894,-198 631.894,-112 631.894,-112 631.894,-106 637.894,-100 643.894,-100"/>
</g>
<g id="clust3" class="cluster"><title>cluster_hostenvfiles</title>
<path fill="moccasin" stroke="black" d="M686.894,-22C686.894,-22 732.894,-22 732.894,-22 738.894,-22 744.894,-28 744.894,-34 744.894,-34 744.894,-62 744.894,-62 744.894,-68 738.894,-74 732.894,-74 732.894,-74 686.894,-74 686.894,-74 680.894,-74 674.894,-68 674.894,-62 674.894,-62 674.894,-34 674.894,-34 674.894,-28 680.894,-22 686.894,-22"/>
</g>
<g id="clust4" class="cluster"><title>cluster_composeContainers</title>
<path fill="lightyellow" stroke="black" d="M194.894,-100C194.894,-100 556.894,-100 556.894,-100 562.894,-100 568.894,-106 568.894,-112 568.894,-112 568.894,-274 568.894,-274 568.894,-280 562.894,-286 556.894,-286 556.894,-286 194.894,-286 194.894,-286 188.894,-286 182.894,-280 182.894,-274 182.894,-274 182.894,-112 182.894,-112 182.894,-106 188.894,-100 194.894,-100"/>
</g>
<g id="clust5" class="cluster"><title>cluster_lumen</title>
<path fill="white" stroke="black" d="M202.894,-108C202.894,-108 347.894,-108 347.894,-108 353.894,-108 359.894,-114 359.894,-120 359.894,-120 359.894,-206 359.894,-206 359.894,-212 353.894,-218 347.894,-218 347.894,-218 202.894,-218 202.894,-218 196.894,-218 190.894,-212 190.894,-206 190.894,-206 190.894,-120 190.894,-120 190.894,-114 196.894,-108 202.894,-108"/>
</g>
<g id="clust8" class="cluster"><title>cluster_elk</title>
<path fill="white" stroke="black" d="M472.894,-226C472.894,-226 518.894,-226 518.894,-226 524.894,-226 530.894,-232 530.894,-238 530.894,-238 530.894,-266 530.894,-266 530.894,-272 524.894,-278 518.894,-278 518.894,-278 472.894,-278 472.894,-278 466.894,-278 460.894,-272 460.894,-266 460.894,-266 460.894,-238 460.894,-238 460.894,-232 466.894,-226 472.894,-226"/>
</g>
<g id="clust10" class="cluster"><title>cluster_mysql</title>
<path fill="white" stroke="black" d="M442.894,-108C442.894,-108 548.894,-108 548.894,-108 554.894,-108 560.894,-114 560.894,-120 560.894,-120 560.894,-206 560.894,-206 560.894,-212 554.894,-218 548.894,-218 548.894,-218 442.894,-218 442.894,-218 436.894,-218 430.894,-212 430.894,-206 430.894,-206 430.894,-120 430.894,-120 430.894,-114 436.894,-108 442.894,-108"/>
</g>
<!-- 8080 -->
<g id="node1" class="node"><title>8080</title>
<ellipse fill="none" stroke="black" cx="50.4469" cy="-141" rx="34.394" ry="34.394"/>
<text text-anchor="middle" x="50.4469" y="-137.3" font-family="Times,serif" font-size="14.00">8080</text>
</g>
<!-- lumen -->
<g id="node10" class="node"><title>lumen</title>
<text text-anchor="middle" x="275.394" y="-188.3" font-family="Times,serif" font-weight="bold" font-size="14.00">lumen</text>
</g>
<!-- 8080&#45;&gt;lumen -->
<g id="edge1" class="edge"><title>8080&#45;&gt;lumen</title>
<path fill="none" stroke="black" d="M84.3435,-148.525C109.945,-154.382 146.797,-162.812 181.248,-170.692"/>
<polygon fill="black" stroke="black" points="180.838,-174.189 191.367,-173.007 182.399,-167.365 180.838,-174.189"/>
<text text-anchor="middle" x="141.894" y="-167.8" font-family="Times,serif" font-size="14.00">80</text>
</g>
<!-- 8443 -->
<g id="node2" class="node"><title>8443</title>
<ellipse fill="none" stroke="black" cx="50.4469" cy="-50" rx="34.394" ry="34.394"/>
<text text-anchor="middle" x="50.4469" y="-46.3" font-family="Times,serif" font-size="14.00">8443</text>
</g>
<!-- 8443&#45;&gt;lumen -->
<g id="edge2" class="edge"><title>8443&#45;&gt;lumen</title>
<path fill="none" stroke="black" d="M77.3294,-71.7959C98.5441,-89.7229 129.298,-115.852 155.894,-139 166.112,-147.894 168.371,-153.218 182.033,-161.975"/>
<polygon fill="black" stroke="black" points="180.531,-165.153 190.919,-167.238 184.099,-159.13 180.531,-165.153"/>
<text text-anchor="middle" x="141.894" y="-142.8" font-family="Times,serif" font-size="14.00">443</text>
</g>
<!-- 5044 -->
<g id="node3" class="node"><title>5044</title>
<ellipse fill="none" stroke="black" cx="50.4469" cy="-505" rx="34.394" ry="34.394"/>
<text text-anchor="middle" x="50.4469" y="-501.3" font-family="Times,serif" font-size="14.00">5044</text>
</g>
<!-- elk -->
<g id="node12" class="node"><title>elk</title>
<text text-anchor="middle" x="495.894" y="-248.3" font-family="Times,serif" font-weight="bold" font-size="14.00">elk</text>
</g>
<!-- 5044&#45;&gt;elk -->
<g id="edge7" class="edge"><title>5044&#45;&gt;elk</title>
<path fill="none" stroke="black" d="M84.471,-499.559C143.676,-488.625 270.077,-459.836 359.894,-401 410.286,-367.99 454.087,-311.772 477.283,-278.639"/>
<polygon fill="black" stroke="black" points="472.874,-287.273 477.998,-278 468.209,-282.054 472.874,-287.273"/>
<text text-anchor="middle" x="275.394" y="-478.8" font-family="Times,serif" font-size="14.00">5044</text>
</g>
<!-- 5601 -->
<g id="node4" class="node"><title>5601</title>
<ellipse fill="none" stroke="black" cx="50.4469" cy="-323" rx="34.394" ry="34.394"/>
<text text-anchor="middle" x="50.4469" y="-319.3" font-family="Times,serif" font-size="14.00">5601</text>
</g>
<!-- 5601&#45;&gt;elk -->
<g id="edge8" class="edge"><title>5601&#45;&gt;elk</title>
<path fill="none" stroke="black" d="M84.7687,-318.419C146.34,-309.854 282.042,-290.511 395.894,-271 416.852,-267.408 440.217,-262.946 458.982,-259.249"/>
<polygon fill="black" stroke="black" points="453.544,-265.915 460.894,-258.284 450.39,-259.666 453.544,-265.915"/>
<text text-anchor="middle" x="275.394" y="-307.8" font-family="Times,serif" font-size="14.00">5601</text>
</g>
<!-- 9200 -->
<g id="node5" class="node"><title>9200</title>
<ellipse fill="none" stroke="black" cx="50.4469" cy="-414" rx="34.394" ry="34.394"/>
<text text-anchor="middle" x="50.4469" y="-410.3" font-family="Times,serif" font-size="14.00">9200</text>
</g>
<!-- 9200&#45;&gt;elk -->
<g id="edge9" class="edge"><title>9200&#45;&gt;elk</title>
<path fill="none" stroke="black" d="M84.1611,-406.804C141.309,-393.72 262.517,-363.678 359.894,-324 395.101,-309.654 433.138,-288.844 459.836,-273.282"/>
<polygon fill="black" stroke="black" points="457.169,-281.934 460.894,-272.016 451.797,-277.446 457.169,-281.934"/>
<text text-anchor="middle" x="275.394" y="-384.8" font-family="Times,serif" font-size="14.00">9200</text>
</g>
<!-- 3306 -->
<g id="node6" class="node"><title>3306</title>
<ellipse fill="none" stroke="black" cx="50.4469" cy="-232" rx="34.394" ry="34.394"/>
<text text-anchor="middle" x="50.4469" y="-228.3" font-family="Times,serif" font-size="14.00">3306</text>
</g>
<!-- mysql -->
<g id="node13" class="node"><title>mysql</title>
<text text-anchor="middle" x="495.894" y="-130.3" font-family="Times,serif" font-weight="bold" font-size="14.00">mysql</text>
</g>
<!-- 3306&#45;&gt;mysql -->
<g id="edge10" class="edge"><title>3306&#45;&gt;mysql</title>
<path fill="none" stroke="black" d="M84.7992,-237.979C142.923,-246.908 265.576,-259.084 359.894,-223 395.165,-209.506 396.096,-188.989 422.669,-168.708"/>
<polygon fill="black" stroke="black" points="424.674,-171.577 430.894,-163 420.683,-165.826 424.674,-171.577"/>
<text text-anchor="middle" x="275.394" y="-250.8" font-family="Times,serif" font-size="14.00">3306</text>
</g>
<!-- host_./data/app -->
<g id="node7" class="node"><title>host_./data/app</title>
<polygon fill="none" stroke="black" points="753.894,-144 677.894,-144 677.894,-148 665.894,-148 665.894,-108 753.894,-108 753.894,-144"/>
<polyline fill="none" stroke="black" points="665.894,-144 677.894,-144 "/>
<text text-anchor="middle" x="709.894" y="-122.3" font-family="Times,serif" font-size="14.00">./data/app</text>
</g>
<!-- host_./data/mysql/data -->
<g id="node8" class="node"><title>host_./data/mysql/data</title>
<polygon fill="none" stroke="black" points="779.894,-202 651.894,-202 651.894,-206 639.894,-206 639.894,-166 779.894,-166 779.894,-202"/>
<polyline fill="none" stroke="black" points="639.894,-202 651.894,-202 "/>
<text text-anchor="middle" x="709.894" y="-180.3" font-family="Times,serif" font-size="14.00">./data/mysql/data</text>
</g>
<!-- .env -->
<g id="node9" class="node"><title>.env</title>
<polygon fill="none" stroke="black" points="730.894,-66 682.894,-66 682.894,-30 736.894,-30 736.894,-60 730.894,-66"/>
<polyline fill="none" stroke="black" points="730.894,-66 730.894,-60 "/>
<polyline fill="none" stroke="black" points="736.894,-60 730.894,-60 "/>
<text text-anchor="middle" x="709.894" y="-44.3" font-family="Times,serif" font-size="14.00">.env</text>
</g>
<!-- lumen&#45;&gt;.env -->
<g id="edge5" class="edge"><title>lumen&#45;&gt;.env</title>
<path fill="none" stroke="black" d="M359.894,-163C395.789,-142.545 393.665,-120.913 430.894,-103 511.319,-64.3018 617.357,-52.8304 672.325,-49.4309"/>
<polygon fill="black" stroke="black" points="672.826,-52.9083 682.614,-48.853 672.434,-45.9194 672.826,-52.9083"/>
</g>
<!-- lumen&#45;&gt;elk -->
<g id="edge3" class="edge"><title>lumen&#45;&gt;elk</title>
<path fill="none" stroke="black" d="M359.529,-214.829C393.977,-224.288 432.104,-234.758 459.093,-242.169"/>
<polygon fill="black" stroke="black" points="450.301,-242.631 460.894,-242.839 452.743,-236.071 450.301,-242.631"/>
</g>
<!-- lumen&#45;&gt;mysql -->
<g id="edge4" class="edge"><title>lumen&#45;&gt;mysql</title>
<path fill="none" stroke="black" d="M359.615,-169.909C379.845,-164.539 401.34,-158.834 421.098,-153.589"/>
<polygon fill="black" stroke="black" points="422.358,-156.876 431.125,-150.927 420.562,-150.11 422.358,-156.876"/>
</g>
<!-- lumen_/var/www/html/app -->
<g id="node11" class="node"><title>lumen_/var/www/html/app</title>
<polygon fill="none" stroke="black" points="351.894,-152 210.894,-152 210.894,-156 198.894,-156 198.894,-116 351.894,-116 351.894,-152"/>
<polyline fill="none" stroke="black" points="198.894,-152 210.894,-152 "/>
<text text-anchor="middle" x="275.394" y="-130.3" font-family="Times,serif" font-size="14.00">/var/www/html/app</text>
</g>
<!-- lumen_/var/www/html/app&#45;&gt;host_./data/app -->
<g id="edge6" class="edge"><title>lumen_/var/www/html/app&#45;&gt;host_./data/app</title>
<path fill="none" stroke="black" d="M350.99,-115.933C376.205,-110.657 404.623,-105.61 430.894,-103 491.927,-96.9374 507.764,-98.012 568.894,-103 597.719,-105.352 629.553,-110.385 655.572,-115.144"/>
<polygon fill="black" stroke="black" points="655.133,-118.623 665.606,-117.019 656.419,-111.742 655.133,-118.623"/>
</g>
<!-- mysql&#45;&gt;.env -->
<g id="edge11" class="edge"><title>mysql&#45;&gt;.env</title>
<path fill="none" stroke="black" d="M560.802,-108.075C597.721,-93.0985 642.774,-74.8223 673.424,-62.3888"/>
<polygon fill="black" stroke="black" points="674.758,-65.6245 682.709,-58.6221 672.127,-59.1379 674.758,-65.6245"/>
</g>
<!-- mysql_/var/lib/mysql -->
<g id="node14" class="node"><title>mysql_/var/lib/mysql</title>
<polygon fill="none" stroke="black" points="552.894,-210 450.894,-210 450.894,-214 438.894,-214 438.894,-174 552.894,-174 552.894,-210"/>
<polyline fill="none" stroke="black" points="438.894,-210 450.894,-210 "/>
<text text-anchor="middle" x="495.894" y="-188.3" font-family="Times,serif" font-size="14.00">/var/lib/mysql</text>
</g>
<!-- mysql_/var/lib/mysql&#45;&gt;host_./data/mysql/data -->
<g id="edge12" class="edge"><title>mysql_/var/lib/mysql&#45;&gt;host_./data/mysql/data</title>
<path fill="none" stroke="black" d="M553.149,-189.877C576.649,-188.99 604.367,-187.944 629.857,-186.983"/>
<polygon fill="black" stroke="black" points="630.014,-190.479 639.875,-186.604 629.75,-183.484 630.014,-190.479"/>
</g>
</g>
</svg>
